<svg xmlns="http://www.w3.org/2000/svg" version="1.1" xmlns:xlink="http://www.w3.org/1999/xlink" xmlns:svgjs="http://svgjs.com/svgjs" width="1440" height="560" preserveAspectRatio="none" viewBox="0 0 1440 560"><g mask="url(&quot;#SvgjsMask1042&quot;)" fill="none"><path d="M-48.8 -25.86 a22.94 22.94 0 1 0 45.88 0 a22.94 22.94 0 1 0 -45.88 0z" fill="rgba(28, 83, 142, 0.4)" class="triangle-float1"></path><path d="M124.567,269.42C173.862,269.755,211.072,231.404,237.054,189.511C264.982,144.481,290.41,89.997,264.521,43.765C238.264,-3.124,178.251,-13.821,124.567,-11.365C75.704,-9.129,28.775,12.792,5.166,55.631C-17.719,97.157,-8.422,146.606,14.697,188.001C38.519,230.655,75.712,269.088,124.567,269.42" fill="rgba(28, 83, 142, 0.4)" class="triangle-float1"></path><path d="M92.997,221.79C134.237,218.576,155.878,177.05,175.66,140.722C194.21,106.656,212.097,68.896,195.287,33.939C176.512,-5.105,136.299,-32.529,92.997,-31.184C51.509,-29.895,21.994,4.074,1.151,39.97C-19.809,76.068,-34.291,118.362,-15.47,155.62C4.997,196.137,47.741,225.317,92.997,221.79" fill="rgba(28, 83, 142, 0.4)" class="triangle-float3"></path><path d="M1362.183,98.244C1384.032,98.111,1401.757,82.252,1412.208,63.065C1422.167,44.781,1422.669,23.278,1413.082,4.796C1402.616,-15.381,1384.9,-32.593,1362.183,-33.376C1338.293,-34.199,1315.955,-20.087,1304.82,1.065C1294.348,20.959,1299.665,44.319,1311.093,63.68C1322.295,82.658,1340.145,98.378,1362.183,98.244" fill="rgba(28, 83, 142, 0.4)" class="triangle-float1"></path><path d="M1284.58 -31.26 a12.16 12.16 0 1 0 24.32 0 a12.16 12.16 0 1 0 -24.32 0z" fill="rgba(28, 83, 142, 0.4)" class="triangle-float3"></path><path d="M1259.41 -6.08 a62.51 62.51 0 1 0 125.02 0 a62.51 62.51 0 1 0 -125.02 0z" fill="rgba(28, 83, 142, 0.4)" class="triangle-float3"></path><path d="M120.129,703.211C170.072,704.661,221.711,684.427,244.99,640.217C267.134,598.162,247.572,549.394,222.323,509.127C199.022,471.966,163.991,440.991,120.129,441.091C76.414,441.191,40.881,471.898,18.741,509.592C-3.742,547.87,-13.371,593.988,7.223,633.315C29.231,675.343,72.708,701.834,120.129,703.211" fill="rgba(28, 83, 142, 0.4)" class="triangle-float2"></path><path d="M133.326,734.174C188.302,734.393,239.108,705.869,267.465,658.771C296.774,610.093,304.605,548.003,274.392,499.881C245.646,454.095,187.388,444.931,133.326,445.119C79.697,445.305,22.283,455.323,-6.053,500.855C-35.693,548.481,-27.747,609.554,1.021,657.712C29.019,704.58,78.732,733.957,133.326,734.174" fill="rgba(28, 83, 142, 0.4)" class="triangle-float1"></path><path d="M148.685,754.055C208.622,753.205,269.62,735.671,301.582,684.96C335.552,631.063,339.207,560.158,304.608,506.663C272.323,456.746,208.129,447.855,148.685,448.561C90.858,449.248,31.131,462.177,-0.952,510.292C-36.519,563.632,-45.45,634.767,-11.91,689.405C20.447,742.116,86.841,754.932,148.685,754.055" fill="rgba(28, 83, 142, 0.4)" class="triangle-float3"></path><path d="M1231.89 469.43 a117.54 117.54 0 1 0 235.08 0 a117.54 117.54 0 1 0 -235.08 0z" fill="rgba(28, 83, 142, 0.4)" class="triangle-float2"></path><path d="M1462.375,751.245C1521.609,753.413,1576.88,716.802,1603.347,663.765C1627.504,615.357,1611.207,558.745,1580.752,514.03C1554.307,475.203,1509.291,459.189,1462.375,456.788C1409.542,454.084,1349.151,455.963,1320.971,500.735C1291.608,547.387,1311.115,606.058,1338.211,654.061C1365.902,703.117,1406.081,749.185,1462.375,751.245" fill="rgba(28, 83, 142, 0.4)" class="triangle-float1"></path><path d="M1199.3 502.04 a182.74 182.74 0 1 0 365.48 0 a182.74 182.74 0 1 0 -365.48 0z" fill="rgba(28, 83, 142, 0.4)" class="triangle-float3"></path></g><defs><mask id="SvgjsMask1042"><rect width="1440" height="560" fill="#ffffff"></rect></mask><style>
            @keyframes float1 {
                0%{transform: translate(0, 0)}
                50%{transform: translate(-10px, 0)}
                100%{transform: translate(0, 0)}
            }

            .triangle-float1 {
                animation: float1 5s infinite;
            }

            @keyframes float2 {
                0%{transform: translate(0, 0)}
                50%{transform: translate(-5px, -5px)}
                100%{transform: translate(0, 0)}
            }

            .triangle-float2 {
                animation: float2 4s infinite;
            }

            @keyframes float3 {
                0%{transform: translate(0, 0)}
                50%{transform: translate(0, -10px)}
                100%{transform: translate(0, 0)}
            }

            .triangle-float3 {
                animation: float3 6s infinite;
            }
        </style></defs></svg>